<!DOCTYPE svg PUBLIC "-//W3C//DTD SVG 1.1//EN" "http://www.w3.org/Graphics/SVG/1.1/DTD/svg11.dtd">
<svg xmlns="http://www.w3.org/2000/svg" viewBox="0 0 2048 2048">
<path fill="#fcdc08" d="M1013.843 123.356c-30.522 17.892-34.606 20.252-39.343 22.724-3.642 1.902-5.833 3.162-15 8.63-2.928 1.747-2.188 1.796 30.75 2.053 72.83.568 101.635-.033 98.25-2.053-9.167-5.468-11.358-6.728-15-8.63-4.257-2.222-7.054-3.824-24.589-14.08-19.309-11.294-18.65-11.01-25.318-10.894-4.278.075-7.183.745-9.75 2.25m-160.665 92.452c-.938.931-2.824 2.252-4.192 2.936-2.608 1.304-6.136 3.38-11.986 7.052-1.925 1.208-4.137 2.198-4.916 2.2-.779.002-2.129.709-3 1.571-1.95 1.929-18.03 11.433-19.343 11.433-.524 0-2.289 1.125-3.923 2.5s-3.767 2.5-4.74 2.5c-.972 0-2.529.841-3.459 1.869-.93 1.028-4.602 3.346-8.158 5.151-3.557 1.805-6.971 3.889-7.586 4.631-.616.742-1.679 1.349-2.363 1.349-.683 0-2.315.838-3.627 1.862-1.312 1.025-3.51 2.202-4.885 2.615-1.375.414-3.4 1.571-4.5 2.571-1.1 1-3.125 2.322-4.5 2.937-1.375.615-4.3 2.218-6.5 3.564-2.2 1.345-5.853 3.341-8.118 4.437-2.265 1.095-4.682 2.671-5.372 3.502-.69.832-2.045 1.512-3.01 1.512-.965 0-2.337.701-3.048 1.558-.711.857-2.679 2.191-4.372 2.965-1.694.774-4.88 2.553-7.08 3.953s-5.894 3.454-8.209 4.563c-2.314 1.11-4.483 2.462-4.818 3.005-.335.542-2.041 1.645-3.791 2.451s-4.082 2.023-5.182 2.705c-7.7 4.775-9.618 5.8-10.856 5.8-.77 0-2.017.745-2.772 1.655-.754.91-2.722 2.277-4.372 3.037-1.65.761-5.025 2.681-7.5 4.267-4.599 2.947-8.792 5.34-15 8.558-1.925.998-4.573 2.64-5.885 3.649-1.312 1.009-3.154 1.834-4.095 1.834-.94 0-2.471.841-3.401 1.869-.93 1.028-4.602 3.346-8.158 5.151-3.557 1.805-6.971 3.889-7.586 4.631-.616.742-1.652 1.349-2.303 1.349s-2.708 1.125-4.572 2.5c-1.864 1.375-4.146 2.5-5.072 2.5-.926 0-2.265.701-2.976 1.558-.711.857-2.679 2.231-4.372 3.053-5.15 2.502-9.628 5.125-11.399 6.678-.925.811-2.806 1.806-4.181 2.211-1.375.405-3.256 1.4-4.181 2.211-1.557 1.365-3.285 2.394-11.319 6.737-1.65.893-4.8 2.73-7 4.084-2.2 1.354-5.894 3.376-8.209 4.494-2.314 1.117-4.483 2.475-4.818 3.018-.335.542-2.041 1.654-3.791 2.471-2.777 1.296-5.723 2.936-14.182 7.896-1.1.645-3.575 2.165-5.5 3.377-1.925 1.213-4.302 2.206-5.281 2.208-.98.002-2.034.66-2.341 1.462-.308.802-3.894 3.106-7.969 5.119-4.075 2.014-7.409 4.049-7.409 4.523 0 .474-1.237 1.164-2.75 1.533-1.512.369-4.022 1.728-5.577 3.019-1.554 1.291-3.622 2.348-4.595 2.348-.972 0-2.529.841-3.459 1.869-.93 1.028-4.602 3.346-8.158 5.151-3.557 1.805-6.971 3.889-7.586 4.631-.616.742-1.965 1.349-2.997 1.349-1.033 0-2.768.89-3.855 1.977-1.087 1.087-3.45 2.674-5.25 3.527-3.973 1.881-6.337 3.294-10.448 6.246-1.724 1.237-3.782 2.25-4.574 2.25-.793 0-2.232.874-3.2 1.943-.967 1.069-3.059 2.229-4.649 2.578-1.589.35-3.23 1.199-3.646 1.888-.416.689-2.331 2.063-4.256 3.052a237.019 237.019 0 0 0-14.5 8.106c-2.2 1.335-5.894 3.341-8.209 4.459-2.314 1.117-4.483 2.475-4.818 3.018-.335.542-2.041 1.645-3.791 2.451-3.213 1.479-4.292 2.105-10.736 6.23-1.954 1.251-4.247 2.275-5.095 2.275-.847 0-2.345.889-3.328 1.974-.983 1.086-2.731 2.275-3.886 2.641-2 .635-3.215 1.36-10.156 6.06-1.661 1.124-4.136 2.388-5.5 2.808-1.365.421-3.286 1.609-4.27 2.641-.984 1.032-2.298 1.876-2.921 1.876-.623 0-1.843.635-2.711 1.41-.869.776-4.279 2.865-7.579 4.644s-6.581 3.69-7.292 4.247c-.71.558-3.185 2.013-5.5 3.234-2.314 1.221-11.408 6.399-20.208 11.507-8.8 5.108-17.35 10.019-19 10.914-1.65.895-7.328 4.187-12.618 7.316-5.291 3.13-10.466 6-11.5 6.379-1.035.379-3.154 1.738-4.709 3.019-1.554 1.282-3.267 2.33-3.805 2.33-.538 0-3.541 1.73-6.673 3.845-5.825 3.932-9.262 5.92-14.878 8.604-1.751.837-3.888 2.529-4.75 3.759-2.393 3.416-2.403 905.154-.01 908.569.856 1.223 2.171 2.223 2.923 2.223.752 0 2.639 1.013 4.193 2.25 4.06 3.232 12.235 7.175 13.095 6.317.403-.402 1.035-17.231 1.406-37.399 1.168-63.578.756-62.682 29.499-64.079 18.015-.875 20.297-3.096 20.36-19.807.096-25.928.791-26.787 22.233-27.508 23.557-.792 24.191-1.426 25.636-25.659 1.523-25.523 2.043-26.076 24.598-26.104 22.848-.028 24.022-1.122 24.777-23.084.822-23.905 2.873-25.927 26.293-25.927 23.694 0 22.672 2.405 24.443-57.5.912-30.846 1.729-38.605 4.229-40.149.642-.397 8.748-1.277 18.013-1.954 25.295-1.851 24.732-1.086 24.774-33.615.031-23.623 1.233-44.996 2.996-53.273 1.682-7.893 3.548-8.76 20.934-9.723 8.661-.48 16.224-1.428 18.702-2.345 7.917-2.927 7.352 8.676 7.489-153.747.067-79.307.398-176.245.736-215.417l.614-71.224 2.276-2.276c2.156-2.157 3.221-2.303 20.228-2.777 25.651-.714 24.308 1.6 25.998-44.767.577-15.803.948-32.558.826-37.233-.394-15.086-.202-15.218 23.172-15.951 25.448-.798 25.303-.658 27.074-26.301 1.49-21.571-.117-20.101 22.703-20.758 25.205-.726 24.818-.376 25.45-22.999.745-26.701.201-26.434 56.273-27.515 17.6-.339 33.604-1.03 35.565-1.535 8.031-2.069 9.775-7.407 9.884-30.257.08-16.823.184-16.902 23.551-17.73 18.001-.637 20.31-1.204 23.25-5.702 2.756-4.218 2.7-130.785-.058-130.997-.994-.077-2.575.622-3.514 1.553m343.353 17.442c-.372 7.838-.531 35.93-.354 62.428.316 47.161.367 48.237 2.428 51l2.105 2.822 20.119.5c26.491.658 24.268-1.594 24.939 25.273l.512 20.461 3.11 1.883c2.901 1.757 6.105 1.903 47.777 2.181 39.537.263 44.82.481 46 1.901.975 1.174 1.493 7.403 1.927 23.203.327 11.879.664 21.699.75 21.822 1.986 2.858 7.672 3.771 24.492 3.932 19.089.182 22.143.543 22.976 2.716.293.764.858 9.334 1.255 19.044 1.054 25.784 1.037 25.765 22.433 25.45 15.502-.229 21.262.013 22.746.956.955.606 1.335 11.188 1.628 45.235.498 58.03-1.83 53.443 27.126 53.443 14.276 0 18.465.308 20.25 1.491l2.25 1.49V1036.93l3.104 3.535 3.103 3.535h19.286c25.342 0 23.632-1.328 24.617 19.108.408 8.466.776 27.474.816 42.241.103 37.579-1.339 35.528 25.582 36.376 10.101.318 18.956.944 19.679 1.389 1.04.642 1.417 10.03 1.813 45.098.47 41.632.617 44.481 2.448 47.509 3.163 5.228 8.088 6.608 20.552 5.757 18.788-1.282 23.803-.583 26.058 3.63.703 1.314 1.438 9.64 1.821 20.639l.643 18.436 3.255 2.909 3.255 2.908h19.329c24.707 0 22.689-1.843 23.834 21.764 1.343 27.66.399 26.685 26.03 26.881 19.415.149 22.89.755 24.335 4.246.367.885.996 9.946 1.398 20.135 1.033 26.154-.14 24.974 24.821 24.974 16.934 0 18.015.115 19.816 2.103 1.798 1.985 1.938 4.754 2.499 49.25.327 25.931.665 47.217.75 47.303.62.622 5.156-1.387 7.483-3.315 1.554-1.287 3.434-2.341 4.177-2.341.743 0 2.284-1.186 3.423-2.635l2.073-2.635V571.349l-2.25-2.023c-1.237-1.112-4.95-3.506-8.25-5.32-3.3-1.813-8.326-4.807-11.169-6.652-2.844-1.845-5.501-3.354-5.906-3.354-.405 0-2.129-1.046-3.831-2.324-1.702-1.278-3.941-2.636-4.976-3.019-1.034-.382-6.209-3.255-11.5-6.385-5.29-3.129-10.968-6.421-12.618-7.316-1.65-.895-10.2-5.806-19-10.914s-17.8-10.244-20-11.414c-2.201-1.171-6.096-3.547-8.657-5.281-2.56-1.734-5.538-3.433-6.617-3.775-1.079-.343-2.766-1.512-3.749-2.598-.983-1.085-2.6-1.974-3.593-1.974-.993 0-2.611-.844-3.595-1.876s-2.905-2.22-4.27-2.641c-1.364-.42-3.839-1.684-5.5-2.808-6.941-4.7-8.156-5.425-10.156-6.06-1.155-.366-2.903-1.555-3.886-2.641-.983-1.085-2.481-1.974-3.328-1.974-.848 0-3.141-1.024-5.095-2.275-6.444-4.125-7.523-4.751-10.736-6.23-1.75-.806-3.456-1.909-3.791-2.451-.335-.543-2.504-1.901-4.818-3.018-2.315-1.118-6.009-3.124-8.209-4.459a237.019 237.019 0 0 0-14.5-8.106c-1.925-.989-3.84-2.363-4.256-3.052-.416-.689-2.057-1.538-3.646-1.888-1.59-.349-3.682-1.509-4.649-2.578-.968-1.069-2.407-1.943-3.2-1.943-.792 0-2.85-1.012-4.574-2.25-4.111-2.952-6.475-4.365-10.448-6.246-1.8-.853-4.163-2.44-5.25-3.527-1.087-1.087-2.822-1.977-3.855-1.977-1.032 0-2.381-.607-2.997-1.349-.615-.742-4.029-2.826-7.586-4.631-3.556-1.805-7.228-4.123-8.158-5.151-.93-1.028-2.487-1.869-3.459-1.869-.973 0-3.041-1.057-4.595-2.348-1.555-1.291-4.064-2.65-5.577-3.019-1.513-.369-2.75-1.059-2.75-1.533s-3.334-2.509-7.409-4.523c-4.075-2.013-7.661-4.317-7.969-5.119-.307-.802-1.361-1.46-2.341-1.462-.979-.002-3.356-.995-5.281-2.208a265.902 265.902 0 0 0-5.5-3.377c-8.459-4.96-11.405-6.6-14.182-7.896-1.75-.817-3.456-1.929-3.791-2.471-.335-.543-2.504-1.901-4.818-3.018-2.315-1.118-6.009-3.14-8.209-4.494-2.2-1.354-5.35-3.191-7-4.084-8.034-4.343-9.762-5.372-11.319-6.737-.925-.811-2.806-1.806-4.181-2.211-1.375-.405-3.256-1.4-4.181-2.211-1.771-1.553-6.249-4.176-11.399-6.678-1.693-.822-3.661-2.196-4.372-3.053-.711-.857-2.05-1.558-2.976-1.558-.926 0-3.208-1.125-5.072-2.5-1.864-1.375-3.921-2.5-4.572-2.5-.651 0-1.687-.607-2.303-1.349-.615-.742-4.029-2.826-7.586-4.631-3.556-1.805-7.228-4.123-8.158-5.151-.93-1.028-2.461-1.869-3.401-1.869-.941 0-2.783-.825-4.095-1.834-1.312-1.009-3.96-2.651-5.885-3.649-6.208-3.218-10.401-5.611-15-8.558-2.475-1.586-5.85-3.506-7.5-4.267-1.65-.76-3.618-2.127-4.372-3.037-.755-.91-2.002-1.655-2.772-1.655-1.238 0-3.156-1.025-10.856-5.8-1.1-.682-3.432-1.899-5.182-2.705-1.75-.806-3.456-1.909-3.791-2.451-.335-.543-2.504-1.895-4.818-3.005-2.315-1.109-6.009-3.163-8.209-4.563-2.2-1.4-5.386-3.179-7.08-3.953-1.693-.774-3.661-2.108-4.372-2.965-.711-.857-2.083-1.558-3.048-1.558-.965 0-2.32-.68-3.01-1.512-.69-.831-3.107-2.407-5.372-3.502-2.265-1.096-5.918-3.092-8.118-4.437-2.2-1.346-5.125-2.949-6.5-3.564-1.375-.615-3.4-1.937-4.5-2.937-1.1-1-3.125-2.157-4.5-2.571-1.375-.413-3.573-1.59-4.885-2.615-1.312-1.024-2.944-1.862-3.627-1.862-.684 0-1.747-.607-2.363-1.349-.615-.742-4.029-2.826-7.586-4.631-3.556-1.805-7.228-4.123-8.158-5.151-.93-1.028-2.487-1.869-3.459-1.869-.973 0-3.106-1.125-4.74-2.5-1.634-1.375-3.399-2.5-3.923-2.5-1.313 0-17.393-9.504-19.343-11.433-.871-.862-2.271-1.567-3.11-1.567-.84 0-3.185-1.125-5.211-2.5-2.026-1.375-4.001-2.51-4.389-2.522-.388-.012-1.831-.902-3.206-1.978-5.305-4.15-5.728-3.349-6.469 12.25m-241.534 13.947c-3.37 1.246-3.903 8.665-4.107 57.141l-.168 39.838 2.666 2.662 2.665 2.662 71.724-.256c68.052-.243 71.851-.351 74.223-2.11l2.5-1.854v-44.39c0-45.763-.315-49.832-4.106-52.978-1.657-1.375-141.748-2.064-145.397-.715M1233 1678.94c-38.587.99-39.051 1.288-40.954 26.316-1.272 16.73-3.046 18.248-25.971 22.235-10.714 1.863-13.777 3.178-17.378 7.457-5.308 6.308-8.631 21.164-8.68 38.802L1140 1780H908v-56h-48v-44.5l-72.25-.301c-119.627-.499-194.882.616-193.477 2.867.626 1.001 2.282 2.106 3.682 2.455 1.4.349 3.301 1.316 4.226 2.149 1.751 1.578 6.133 4.161 11.399 6.719 1.693.822 3.661 2.196 4.372 3.053.711.857 2.05 1.558 2.976 1.558.926 0 3.208 1.125 5.072 2.5 1.864 1.375 3.921 2.5 4.572 2.5.651 0 1.687.607 2.303 1.349.615.742 4.029 2.826 7.586 4.631 3.556 1.805 7.228 4.123 8.158 5.151.93 1.028 2.461 1.869 3.401 1.869.941 0 2.783.825 4.095 1.834 1.312 1.009 3.96 2.651 5.885 3.649 6.208 3.218 10.401 5.611 15 8.558 2.475 1.586 5.85 3.506 7.5 4.267 1.65.76 3.618 2.127 4.372 3.037.755.91 2.002 1.655 2.772 1.655 1.238 0 3.156 1.025 10.856 5.8 1.1.682 3.432 1.899 5.182 2.705 1.75.806 3.456 1.909 3.791 2.451.335.543 2.504 1.895 4.818 3.005 2.315 1.109 6.009 3.163 8.209 4.563 2.2 1.4 5.386 3.179 7.08 3.953 1.693.774 3.661 2.108 4.372 2.965.711.857 2.083 1.558 3.048 1.558.965 0 2.32.68 3.01 1.512.69.831 3.107 2.407 5.372 3.502 2.265 1.096 5.918 3.092 8.118 4.437 2.2 1.346 5.125 2.949 6.5 3.564 1.375.615 3.4 1.937 4.5 2.937 1.1 1 3.125 2.157 4.5 2.571 1.375.413 3.573 1.59 4.885 2.615 1.312 1.024 2.944 1.862 3.627 1.862.684 0 1.747.607 2.363 1.349.615.742 4.029 2.826 7.586 4.631 3.556 1.805 7.228 4.123 8.158 5.151.93 1.028 2.487 1.869 3.459 1.869.973 0 3.106 1.125 4.74 2.5 1.634 1.375 3.399 2.5 3.923 2.5 1.313 0 17.393 9.504 19.343 11.433.871.862 2.221 1.569 3 1.571.779.002 2.991.992 4.916 2.2 7.376 4.63 9.588 5.902 12.25 7.05 1.513.651 2.75 1.552 2.75 2.001 0 .449 1.913 1.707 4.25 2.796 2.337 1.089 6.5 3.284 9.25 4.877 2.75 1.594 6.35 3.613 8 4.488 1.65.874 5.025 2.93 7.5 4.567 2.475 1.637 5.473 3.41 6.662 3.939 2.002.89 8.27 4.452 17.177 9.759 2.014 1.2 5.011 2.818 6.661 3.595 1.65.778 3.618 2.159 4.372 3.069.755.91 2.183 1.655 3.174 1.655.99 0 3.073 1.03 4.627 2.289 1.555 1.259 4.134 2.856 5.731 3.549 1.597.692 5.197 2.762 8 4.598 2.803 1.836 6.067 3.631 7.254 3.989 1.186.358 2.41 1.309 2.718 2.113.309.804 1.441 1.462 2.516 1.462s3.227 1.03 4.781 2.289c1.555 1.259 3.952 2.843 5.327 3.52s4.3 2.309 6.5 3.627c2.2 1.317 5.8 3.335 8 4.484 4.257 2.222 7.054 3.824 24.589 14.08 18.996 11.11 18.746 11 24.911 11 6.165 0 5.915.11 24.911-11 19.998-11.697 27.528-15.94 32.669-18.407 1.693-.812 3.661-2.178 4.372-3.035.711-.857 1.825-1.558 2.476-1.558s2.708-1.125 4.572-2.5c1.864-1.375 4.215-2.5 5.226-2.5 1.01 0 2.089-.658 2.398-1.462.308-.804 1.532-1.755 2.718-2.113 1.187-.358 4.451-2.153 7.254-3.989 2.803-1.836 6.403-3.906 8-4.598 1.597-.693 4.176-2.29 5.731-3.549 1.554-1.259 3.637-2.289 4.627-2.289.991 0 2.419-.745 3.174-1.655.754-.91 2.722-2.291 4.372-3.069 1.65-.777 4.647-2.395 6.661-3.595 8.907-5.307 15.175-8.869 17.177-9.759 1.189-.529 4.187-2.302 6.662-3.939 2.475-1.637 5.85-3.693 7.5-4.567 1.65-.875 5.25-2.894 8-4.488 2.75-1.593 6.912-3.788 9.25-4.877s4.25-2.347 4.25-2.796c0-.449 1.237-1.35 2.75-2.001 2.662-1.148 4.874-2.42 12.25-7.05 1.925-1.208 4.137-2.198 4.916-2.2.779-.002 2.129-.709 3-1.571 1.95-1.929 18.03-11.433 19.343-11.433.524 0 2.289-1.125 3.923-2.5s3.767-2.5 4.74-2.5c.972 0 2.529-.841 3.459-1.869.93-1.028 4.602-3.346 8.158-5.151 3.557-1.805 6.971-3.889 7.586-4.631.616-.742 1.679-1.349 2.363-1.349.683 0 2.315-.838 3.627-1.862 1.312-1.025 3.51-2.202 4.885-2.615 1.375-.414 3.4-1.571 4.5-2.571 1.1-1 3.125-2.322 4.5-2.937 1.375-.615 4.3-2.218 6.5-3.564 2.2-1.345 5.853-3.341 8.118-4.437 2.265-1.095 4.682-2.671 5.372-3.502.69-.832 2.03-1.512 2.977-1.512.948 0 2.538-.9 3.533-2 .995-1.1 2.341-2 2.989-2 .649 0 3.621-1.71 6.606-3.801 2.984-2.091 6.186-4.093 7.115-4.449.929-.357 6.099-3.288 11.49-6.515 5.39-3.226 11.375-6.635 13.3-7.575 1.925-.94 7.55-4.215 12.5-7.278 4.95-3.062 9.9-5.975 11-6.473 1.1-.497 2.889-1.468 3.976-2.157 8.017-5.082 12.722-7.752 13.659-7.752.604 0 3.243-1.575 5.865-3.5 2.622-1.925 5.182-3.5 5.687-3.5.505 0 4.861-2.475 9.679-5.5 4.818-3.025 9.317-5.5 9.997-5.5.68 0 1.741-.504 2.356-1.119 1.43-1.43 14.527-9.237 19.843-11.828 2.234-1.089 4.892-2.897 5.905-4.017l1.843-2.036-47.405-.001c-26.073-.001-69.905-.179-97.405-.395-27.5-.217-62.825-.066-78.5.336" fill-rule="evenodd"/>
</svg>